<?xml version="1.0" encoding="UTF-8" standalone="no"?>
<!-- Created with Inkscape (http://www.inkscape.org/) -->

<svg
   xmlns:dc="http://purl.org/dc/elements/1.1/"
   xmlns:cc="http://creativecommons.org/ns#"
   xmlns:rdf="http://www.w3.org/1999/02/22-rdf-syntax-ns#"
   xmlns:svg="http://www.w3.org/2000/svg"
   xmlns="http://www.w3.org/2000/svg"
   xmlns:sodipodi="http://sodipodi.sourceforge.net/DTD/sodipodi-0.dtd"
   xmlns:inkscape="http://www.inkscape.org/namespaces/inkscape"
   width="680.77246"
   height="504.19531"
   id="svg3900"
   version="1.1"
   inkscape:version="0.48.4 r9939"
   sodipodi:docname="logo_only.svg"
   inkscape:export-filename="/home/likewise-open/DAPESCO/lbi/priv/befritco/logo/favicon.ico.png"
   inkscape:export-xdpi="6.2475791"
   inkscape:export-ydpi="6.2475791">
  <defs
     id="defs3902" />
  <sodipodi:namedview
     id="base"
     pagecolor="#ffffff"
     bordercolor="#666666"
     borderopacity="1.0"
     inkscape:pageopacity="0.0"
     inkscape:pageshadow="2"
     inkscape:zoom="1.0279412"
     inkscape:cx="258.75349"
     inkscape:cy="184.19222"
     inkscape:document-units="px"
     inkscape:current-layer="layer1"
     showgrid="false"
     fit-margin-top="10"
     fit-margin-left="10"
     fit-margin-right="10"
     fit-margin-bottom="10"
     inkscape:window-width="1920"
     inkscape:window-height="1027"
     inkscape:window-x="0"
     inkscape:window-y="27"
     inkscape:window-maximized="1" />
  <metadata
     id="metadata3905">
    <rdf:RDF>
      <cc:Work
         rdf:about="">
        <dc:format>image/svg+xml</dc:format>
        <dc:type
           rdf:resource="http://purl.org/dc/dcmitype/StillImage" />
        <dc:title></dc:title>
      </cc:Work>
    </rdf:RDF>
  </metadata>
  <g
     inkscape:label="Layer 1"
     inkscape:groupmode="layer"
     id="layer1"
     transform="translate(-16.756612,78.878329)">
    <g
       transform="translate(0.63261714,-113.78669)"
       id="g3040"
       style="fill:#47729f;fill-opacity:1"
       inkscape:export-filename="/home/likewise-open/DAPESCO/lbi/priv/befritco/logo/logo_only.png"
       inkscape:export-xdpi="90"
       inkscape:export-ydpi="90">
      <circle
         d="m 595.595,288.16901 c 0,132.27937 -107.23362,239.513 -239.513,239.513 -132.27938,0 -239.513,-107.23363 -239.513,-239.513 0,-132.27938 107.23362,-239.513004 239.513,-239.513004 132.27938,0 239.513,107.233624 239.513,239.513004 z"
         sodipodi:ry="239.513"
         sodipodi:rx="239.513"
         sodipodi:cy="288.16901"
         sodipodi:cx="356.082"
         id="circle3"
         r="239.513"
         cy="288.16901"
         cx="356.082"
         style="fill:#47729f;fill-opacity:1" />
      <g
         id="g5"
         style="fill:#47729f;fill-opacity:1">
        <path
           inkscape:connector-curvature="0"
           id="path7"
           d="m 198.934,527.681 c 0,0 -0.507,-0.208 -1.491,-0.61 -0.988,-0.391 -2.435,-1.012 -4.314,-1.873 -3.729,-1.749 -9.162,-4.48 -15.632,-8.729 -6.474,-4.228 -14.037,-9.902 -21.917,-17.314 -7.908,-7.375 -16.214,-16.399 -24.223,-27.066 -8.032,-10.641 -15.924,-22.817 -23.008,-36.38 -3.578,-6.762 -6.942,-13.872 -10.101,-21.261 -3.176,-7.382 -6.106,-15.06 -8.764,-22.978 -1.353,-3.951 -2.596,-7.976 -3.82,-12.037 -1.179,-4.074 -2.318,-8.194 -3.356,-12.366 -2.096,-8.338 -3.945,-16.853 -5.384,-25.51 -1.461,-8.652 -2.646,-17.425 -3.441,-26.271 -0.78,-8.847 -1.273,-17.756 -1.39,-26.672 l -0.033,-3.344 -0.01,-1.712 0.014,-1.642 0.032,-3.283 0.08,-3.364 c 0.101,-4.492 0.323,-8.907 0.579,-13.35 0.555,-8.867 1.478,-17.68 2.739,-26.376 2.525,-17.394 6.501,-34.315 11.803,-50.221 5.272,-15.917 11.946,-30.778 19.51,-44.158 3.822,-6.669 7.83,-12.99 12.027,-18.876 4.233,-5.861 8.574,-11.338 13.022,-16.346 4.447,-5.008 8.924,-9.611 13.42,-13.729 4.517,-4.096 8.996,-7.751 13.348,-10.984 8.685,-6.5 16.928,-11.166 23.878,-14.554 6.955,-3.404 12.684,-5.431 16.59,-6.733 1.957,-0.648 3.471,-1.092 4.497,-1.375 1.021,-0.292 1.549,-0.442 1.549,-0.442 0,0 -0.505,0.215 -1.482,0.63 -0.982,0.401 -2.42,1.045 -4.288,1.889 -1.865,0.851 -4.139,1.952 -6.77,3.316 -2.609,1.409 -5.604,3.019 -8.847,5.004 -6.488,3.96 -14.039,9.279 -21.988,16.169 -7.926,6.913 -16.181,15.467 -24.136,25.608 -3.979,5.069 -7.821,10.58 -11.534,16.439 -3.722,5.854 -7.288,12.083 -10.631,18.649 -3.329,6.573 -6.51,13.448 -9.348,20.646 -1.443,3.588 -2.796,7.258 -4.124,10.974 -1.278,3.735 -2.55,7.512 -3.685,11.37 -2.317,7.696 -4.36,15.619 -6.087,23.714 -1.703,8.101 -3.135,16.364 -4.258,24.741 -1.085,8.383 -1.873,16.875 -2.397,25.42 -0.227,4.267 -0.425,8.583 -0.5,12.837 l -0.063,3.197 -0.018,3.283 -0.007,3.213 0.018,3.224 c 0.075,8.598 0.514,17.19 1.229,25.724 0.693,8.536 1.7,17.014 3.01,25.377 2.579,16.735 6.361,33.01 11.051,48.45 4.712,15.436 10.351,30.032 16.655,43.434 3.122,6.718 6.476,13.099 9.861,19.194 3.4,6.088 6.911,11.85 10.512,17.229 7.219,10.742 14.562,20.128 21.717,27.875 7.167,7.73 13.967,13.99 19.944,18.69 5.981,4.691 10.977,8.042 14.5,10.133 1.763,1.033 3.118,1.844 4.056,2.344 0.927,0.516 1.406,0.783 1.406,0.783 z"
           style="fill:#47729f;fill-opacity:1" />
      </g>
      <g
         id="g9"
         style="fill:#47729f;fill-opacity:1">
        <path
           inkscape:connector-curvature="0"
           id="path11"
           d="m 65.565,433.42 c 0,0 -0.183,-0.244 -0.538,-0.717 -0.351,-0.477 -0.899,-1.158 -1.52,-2.127 -1.287,-1.913 -3.099,-4.766 -5.074,-8.58 -1.998,-3.8 -4.29,-8.492 -6.616,-14 -2.338,-5.503 -4.755,-11.801 -7.142,-18.759 -2.37,-6.962 -4.702,-14.585 -6.879,-22.732 -2.159,-8.151 -4.207,-16.817 -5.914,-25.878 -0.873,-4.526 -1.664,-9.148 -2.354,-13.851 -0.372,-2.347 -0.676,-4.721 -1.006,-7.103 -0.3,-2.386 -0.558,-4.792 -0.826,-7.206 -1.017,-9.669 -1.574,-19.561 -1.572,-29.52 0.071,-9.904 0.622,-19.789 1.635,-29.442 0.475,-4.831 1.085,-9.605 1.78,-14.305 0.686,-4.701 1.435,-9.332 2.307,-13.862 3.397,-18.134 8.003,-34.768 13.104,-48.633 2.551,-6.932 5.213,-13.175 7.879,-18.569 2.654,-5.399 5.358,-9.923 7.812,-13.486 2.437,-3.579 4.736,-6.115 6.384,-7.723 0.821,-0.81 1.506,-1.371 1.967,-1.743 0.465,-0.365 0.705,-0.554 0.705,-0.554 0,0 -0.193,0.236 -0.567,0.692 -0.372,0.456 -0.895,1.156 -1.541,2.083 -1.312,1.843 -2.934,4.736 -4.731,8.518 -3.542,7.605 -7.352,19.006 -10.783,32.968 -3.443,13.958 -6.566,30.471 -8.948,48.26 -0.579,4.449 -1.135,8.974 -1.626,13.56 -0.482,4.587 -0.899,9.233 -1.275,13.915 -0.697,9.371 -1.185,18.881 -1.182,28.382 -0.07,9.447 0.44,18.953 1.137,28.305 0.406,4.675 0.829,9.315 1.334,13.899 0.483,4.586 1.104,9.104 1.68,13.557 1.213,8.896 2.62,17.481 4.098,25.604 1.474,8.123 3.028,15.785 4.594,22.834 1.563,7.049 3.143,13.484 4.654,19.162 1.521,5.674 2.936,10.606 4.259,14.619 1.336,4.003 2.454,7.152 3.356,9.225 0.425,1.052 0.797,1.852 1.04,2.39 0.243,0.539 0.369,0.817 0.369,0.817 z"
           style="fill:#47729f;fill-opacity:1" />
      </g>
      <g
         id="g13"
         style="fill:#47729f;fill-opacity:1">
        <path
           inkscape:connector-curvature="0"
           id="path15"
           d="m 511.276,527.681 c 0,0 0.479,-0.266 1.407,-0.781 0.937,-0.5 2.293,-1.307 4.06,-2.334 3.529,-2.077 8.546,-5.389 14.591,-9.999 6.037,-4.622 12.95,-10.751 20.283,-18.323 7.317,-7.591 14.887,-16.787 22.361,-27.343 3.73,-5.284 7.368,-10.96 10.91,-16.958 3.532,-6.005 7.011,-12.31 10.275,-18.947 6.581,-13.247 12.473,-27.724 17.385,-43.067 2.454,-7.672 4.634,-15.569 6.573,-23.625 1.94,-8.056 3.513,-16.297 4.878,-24.635 1.362,-8.341 2.316,-16.811 3.042,-25.328 0.732,-8.519 1.091,-17.102 1.14,-25.686 0.152,-17.211 -0.902,-34.417 -3.032,-51.201 -2.181,-16.774 -5.464,-33.13 -9.917,-48.593 -4.416,-15.473 -9.954,-30.057 -16.336,-43.346 -3.195,-6.642 -6.591,-12.966 -10.159,-18.916 -3.554,-5.957 -7.241,-11.571 -11.08,-16.743 C 569.989,101.505 561.981,92.731 554.222,85.648 546.445,78.582 539,73.13 532.57,69.092 c -3.214,-2.024 -6.19,-3.662 -8.785,-5.091 -2.618,-1.381 -4.885,-2.494 -6.746,-3.349 -1.864,-0.849 -3.3,-1.496 -4.281,-1.896 -0.977,-0.416 -1.481,-0.631 -1.481,-0.631 0,0 0.527,0.151 1.547,0.444 1.025,0.283 2.538,0.73 4.492,1.386 3.899,1.317 9.616,3.381 16.525,6.878 6.902,3.483 15.065,8.299 23.593,15.005 4.273,3.334 8.658,7.104 13.062,11.318 4.389,4.229 8.73,8.958 13.033,14.083 4.307,5.125 8.487,10.718 12.556,16.685 4.052,5.98 7.868,12.406 11.534,19.15 7.241,13.535 13.588,28.5 18.632,44.456 2.564,7.966 4.748,16.193 6.648,24.585 1.928,8.388 3.465,16.965 4.7,25.649 1.252,8.683 2.159,17.481 2.719,26.333 0.573,8.827 0.849,17.793 0.772,26.653 -0.146,17.839 -1.742,35.672 -4.769,52.972 -1.5,8.652 -3.347,17.173 -5.539,25.493 -2.175,8.325 -4.639,16.466 -7.446,24.338 -2.785,7.878 -5.801,15.527 -9.124,22.849 -3.302,7.328 -6.782,14.386 -10.513,21.066 -7.373,13.411 -15.553,25.395 -23.842,35.829 -8.27,10.459 -16.784,19.274 -24.849,26.462 -8.037,7.229 -15.692,12.755 -22.218,16.886 -6.523,4.151 -11.97,6.838 -15.704,8.568 -1.88,0.854 -3.329,1.47 -4.317,1.859 -0.985,0.402 -1.493,0.609 -1.493,0.609 z"
           style="fill:#47729f;fill-opacity:1" />
      </g>
      <g
         id="g17"
         style="fill:#47729f;fill-opacity:1">
        <path
           inkscape:connector-curvature="0"
           id="path19"
           d="m 642.8,433.42 c 0,0 0.612,-1.063 1.76,-3.055 1.121,-1.985 2.609,-4.988 4.37,-8.841 1.737,-3.866 3.613,-8.657 5.553,-14.212 1.935,-5.557 3.908,-11.893 5.798,-18.87 1.911,-6.97 3.746,-14.581 5.398,-22.684 1.678,-8.095 3.204,-16.676 4.455,-25.588 1.279,-8.907 2.286,-18.146 2.965,-27.539 0.343,-4.697 0.556,-9.435 0.746,-14.187 0.052,-2.376 0.143,-4.757 0.135,-7.139 l 0.015,-3.552 -0.017,-3.615 c -0.046,-4.738 -0.218,-9.543 -0.485,-14.3 -0.236,-4.765 -0.563,-9.515 -0.977,-14.224 -0.79,-9.422 -1.901,-18.682 -3.134,-27.629 -1.279,-8.939 -2.696,-17.566 -4.265,-25.707 -1.568,-8.14 -3.239,-15.805 -4.992,-22.827 -1.749,-7.023 -3.568,-13.407 -5.39,-18.998 -1.835,-5.583 -3.624,-10.398 -5.367,-14.247 -1.748,-3.842 -3.319,-6.789 -4.568,-8.693 -1.229,-1.919 -1.998,-2.884 -1.998,-2.884 0,0 0.23,0.203 0.677,0.596 0.442,0.398 1.105,0.992 1.892,1.84 0.801,0.837 1.746,1.915 2.798,3.231 1.065,1.31 2.212,2.876 3.399,4.693 2.39,3.623 5.066,8.187 7.696,13.626 2.649,5.431 5.314,11.706 7.881,18.67 2.567,6.964 5.028,14.619 7.292,22.808 2.267,8.188 4.344,16.909 6.111,26.011 0.9,4.548 1.721,9.193 2.438,13.915 0.72,4.72 1.412,9.509 1.93,14.362 0.535,4.85 1,9.752 1.338,14.69 0.316,4.947 0.532,9.895 0.62,14.914 0.121,9.947 -0.241,19.956 -1.218,29.693 -0.894,9.755 -2.345,19.28 -4.108,28.414 -0.895,4.565 -1.867,9.034 -2.917,13.384 -1.088,4.341 -2.177,8.578 -3.384,12.664 -1.196,4.087 -2.463,8.033 -3.734,11.83 -1.331,3.782 -2.641,7.422 -4.014,10.876 -2.745,6.908 -5.574,13.113 -8.349,18.478 -2.766,5.368 -5.511,9.874 -7.928,13.467 -2.397,3.607 -4.554,6.246 -6.044,8.016 -0.735,0.887 -1.365,1.505 -1.761,1.949 -0.408,0.439 -0.617,0.664 -0.617,0.664 z"
           style="fill:#47729f;fill-opacity:1" />
      </g>
    </g>
    <ellipse
       transform="translate(0.63261714,-113.78669)"
       style="fill:none;stroke:#ffffff;stroke-width:5.16930008;stroke-miterlimit:10"
       sodipodi:ry="239.513"
       sodipodi:rx="205.28101"
       sodipodi:cy="287.00601"
       sodipodi:cx="354.255"
       stroke-miterlimit="10"
       cx="354.255"
       cy="287.00601"
       rx="205.28101"
       ry="239.513"
       id="ellipse21"
       d="m 559.53601,287.00601 c 0,132.27938 -91.90744,239.513 -205.28101,239.513 -113.37356,0 -205.281,-107.23362 -205.281,-239.513 0,-132.27938 91.90744,-239.512999 205.281,-239.512999 113.37357,0 205.28101,107.233619 205.28101,239.512999 z" />
    <ellipse
       transform="translate(0.63261714,-113.78669)"
       style="fill:none;stroke:#ffffff;stroke-width:5.16930008;stroke-miterlimit:10"
       sodipodi:ry="239.513"
       sodipodi:rx="154.366"
       sodipodi:cy="287.00601"
       sodipodi:cx="357.64001"
       stroke-miterlimit="10"
       cx="357.64001"
       cy="287.00601"
       rx="154.366"
       ry="239.513"
       id="ellipse23"
       d="m 512.00601,287.00601 c 0,132.27938 -69.11201,239.513 -154.366,239.513 -85.25398,0 -154.36599,-107.23362 -154.36599,-239.513 0,-132.27938 69.11201,-239.512999 154.36599,-239.512999 85.25399,0 154.366,107.233619 154.366,239.512999 z"
       inkscape:export-xdpi="90"
       inkscape:export-ydpi="90" />
    <ellipse
       transform="translate(0.63261714,-113.78669)"
       style="fill:none;stroke:#ffffff;stroke-width:5.16930008;stroke-miterlimit:10"
       sodipodi:ry="239.513"
       sodipodi:rx="96.188004"
       sodipodi:cy="287.00601"
       sodipodi:cx="361.51901"
       stroke-miterlimit="10"
       cx="361.51901"
       cy="287.00601"
       rx="96.188004"
       ry="239.513"
       id="ellipse25"
       d="m 457.70702,287.00601 c 0,132.27938 -43.06484,239.513 -96.18801,239.513 -53.12317,0 -96.188,-107.23362 -96.188,-239.513 0,-132.27938 43.06483,-239.512999 96.188,-239.512999 53.12317,0 96.18801,107.233619 96.18801,239.512999 z" />
    <ellipse
       transform="translate(0.63261714,-113.78669)"
       style="fill:none;stroke:#ffffff;stroke-width:5.16930008;stroke-miterlimit:10"
       sodipodi:ry="239.513"
       sodipodi:rx="42.664001"
       sodipodi:cy="287.00601"
       sodipodi:cx="359.19199"
       stroke-miterlimit="10"
       cx="359.19199"
       cy="287.00601"
       rx="42.664001"
       ry="239.513"
       id="ellipse27"
       d="m 401.85599,287.00601 c 0,132.27938 -19.10133,239.513 -42.664,239.513 -23.56268,0 -42.66401,-107.23362 -42.66401,-239.513 0,-132.27938 19.10133,-239.512999 42.66401,-239.512999 23.56267,0 42.664,107.233619 42.664,239.512999 z" />
    <ellipse
       transform="translate(0.63261714,-113.78669)"
       style="fill:none;stroke:#ffffff;stroke-width:5.16930008;stroke-miterlimit:10"
       sodipodi:ry="205.28101"
       sodipodi:rx="239.513"
       sodipodi:cy="287.005"
       sodipodi:cx="354.254"
       stroke-miterlimit="10"
       cx="354.254"
       cy="287.005"
       rx="239.513"
       ry="205.28101"
       id="ellipse29"
       d="m 593.767,287.005 c 0,113.37357 -107.23362,205.28101 -239.513,205.28101 -132.27938,0 -239.513,-91.90744 -239.513,-205.28101 0,-113.37356 107.23362,-205.281001 239.513,-205.281001 132.27938,0 239.513,91.907441 239.513,205.281001 z" />
    <ellipse
       transform="translate(0.63261714,-113.78669)"
       style="fill:none;stroke:#ffffff;stroke-width:5.16930008;stroke-miterlimit:10"
       sodipodi:ry="154.367"
       sodipodi:rx="239.513"
       sodipodi:cy="283.62"
       sodipodi:cx="354.254"
       stroke-miterlimit="10"
       cx="354.254"
       cy="283.62"
       rx="239.513"
       ry="154.367"
       id="ellipse31"
       d="m 593.767,283.62 c 0,85.25454 -107.23362,154.367 -239.513,154.367 -132.27938,0 -239.513,-69.11246 -239.513,-154.367 0,-85.25455 107.23362,-154.36701 239.513,-154.36701 132.27938,0 239.513,69.11246 239.513,154.36701 z" />
    <ellipse
       transform="translate(0.63261714,-113.78669)"
       style="fill:none;stroke:#ffffff;stroke-width:5.16930008;stroke-miterlimit:10"
       sodipodi:ry="96.188004"
       sodipodi:rx="239.513"
       sodipodi:cy="279.741"
       sodipodi:cx="354.254"
       stroke-miterlimit="10"
       cx="354.254"
       cy="279.741"
       rx="239.513"
       ry="96.188004"
       id="ellipse33"
       d="m 593.767,279.741 c 0,53.12316 -107.23362,96.188 -239.513,96.188 -132.27938,0 -239.513,-43.06484 -239.513,-96.188 0,-53.12317 107.23362,-96.18801 239.513,-96.18801 132.27938,0 239.513,43.06484 239.513,96.18801 z" />
    <ellipse
       transform="translate(0.63261714,-113.78669)"
       style="fill:none;stroke:#ffffff;stroke-width:5.16930008;stroke-miterlimit:10"
       sodipodi:ry="42.664001"
       sodipodi:rx="239.513"
       sodipodi:cy="282.06799"
       sodipodi:cx="354.254"
       stroke-miterlimit="10"
       cx="354.254"
       cy="282.06799"
       rx="239.513"
       ry="42.664001"
       id="ellipse35"
       d="m 593.767,282.06799 c 0,23.56268 -107.23362,42.664 -239.513,42.664 -132.27938,0 -239.513,-19.10132 -239.513,-42.664 0,-23.56267 107.23362,-42.664 239.513,-42.664 132.27938,0 239.513,19.10133 239.513,42.664 z" />
  </g>
</svg>
